<svg width="28" height="26" viewBox="0 0 28 26" fill="none" xmlns="http://www.w3.org/2000/svg">
<path d="M26.4714 9.16941L18.4773 7.98755L14.9037 0.617731C14.8061 0.41595 14.6455 0.252603 14.4472 0.153314C13.9497 -0.0965102 13.3452 0.111677 13.0964 0.617731L9.52284 7.98755L1.52869 9.16941C1.3083 9.20144 1.10679 9.30714 0.95251 9.46728C0.765996 9.66229 0.663218 9.92465 0.66676 10.1967C0.670303 10.4688 0.779875 10.7283 0.971401 10.9182L6.75527 16.6545L5.38881 24.7546C5.35676 24.943 5.37726 25.1368 5.44797 25.314C5.51869 25.4912 5.63679 25.6447 5.78889 25.757C5.94098 25.8694 6.12099 25.9362 6.30849 25.9498C6.496 25.9634 6.6835 25.9233 6.84973 25.834L14.0001 22.0097L21.1504 25.834C21.3456 25.9397 21.5723 25.9749 21.7896 25.9365C22.3374 25.8404 22.7058 25.3119 22.6113 24.7546L21.2449 16.6545L27.0287 10.9182C27.1862 10.7612 27.2901 10.5563 27.3216 10.3321C27.4066 9.77155 27.0224 9.25269 26.4714 9.16941Z" fill="white"/>
</svg>
