<svg width="28" height="26" viewBox="0 0 28 26" fill="none" xmlns="http://www.w3.org/2000/svg">
<path d="M18.2816 18.0096C24.5087 12.4261 29.3334 5.09068 26.5043 1.87328C25.6069 0.853366 24.3539 0.380421 23.0086 0.525732C21.8791 0.650479 20.7184 1.2139 19.5482 2.15979C17.7086 1.19745 15.6554 0.727662 13.5847 0.795345C11.5141 0.863027 9.49521 1.46591 7.72115 2.54637C6.34203 3.37091 5.13878 4.46379 4.18121 5.76161C3.22365 7.05942 2.53083 8.53633 2.14296 10.1066C1.53844 12.5255 1.68343 15.0734 2.55837 17.4065C1.11258 19.0556 -0.230044 22.4471 1.44111 24.3471C2.14296 25.1436 3.14755 25.5 4.35577 25.5C8.03067 25.5 13.598 22.2113 18.2816 18.0096ZM23.3032 3.24962C23.7892 3.20301 24.1611 3.33736 24.472 3.69241C24.7856 4.0502 24.7014 4.98924 24.1299 6.33679C23.5159 5.39323 22.7774 4.53863 21.9347 3.7966C22.5198 3.43743 22.9882 3.28527 23.3032 3.24962ZM3.9838 20.1153C4.58745 20.9994 5.30308 21.7999 6.11245 22.4965C4.72096 22.9118 3.7856 22.8844 3.47201 22.5252C3.17742 22.1921 3.47472 21.0598 3.9838 20.1153ZM26.1255 12.0697C24.4761 14.5331 22.1805 17.1021 19.6391 19.3805C17.0136 21.737 14.1193 23.7782 11.4259 25.1408C12.2616 25.3266 13.1143 25.424 13.97 25.4315C16.1778 25.4291 18.3436 24.8217 20.2364 23.674C22.2028 22.4985 23.7994 20.7848 24.8416 18.7312C25.8838 16.6776 26.3289 14.3681 26.1255 12.0697Z" fill="white"/>
</svg>
