<svg width="28" height="28" viewBox="0 0 28 28" fill="none" xmlns="http://www.w3.org/2000/svg">
<path d="M25.4273 13.7579C25.4273 20.0752 20.3062 25.1963 13.9889 25.1963C7.67167 25.1963 2.55053 20.0752 2.55053 13.7579C2.55053 7.44069 7.67167 2.31954 13.9889 2.31954C20.3062 2.31954 25.4273 7.44069 25.4273 13.7579Z" fill="white"/>
<path d="M6.19387 2.65846C5.34658 3.46892 5.50192 5.39803 5.6855 6.21708C8.19347 3.84467 12.0966 2.53137 13.2687 2.44664C12.7604 1.68408 11.7436 0.636942 10.3456 0.667334C8.69337 0.703251 7.16825 1.72645 6.19387 2.65846Z" fill="white"/>
<path d="M2.07527 20.2027C2.75101 21.1609 4.68181 21.2936 5.51903 21.2336C3.54508 18.4013 2.82556 14.3465 2.91571 13.1748C2.08615 13.5644 0.899719 14.4145 0.722305 15.8015C0.512634 17.4408 1.29817 19.1008 2.07527 20.2027Z" fill="white"/>
<path d="M27.3091 12.4565C27.2781 13.6286 25.7448 14.8097 25.0149 15.224C25.087 11.7724 23.4373 7.9991 22.7126 7.07404C23.619 6.93825 25.0777 6.98779 25.9945 8.04369C27.0779 9.29157 27.3447 11.1086 27.3091 12.4565Z" fill="white"/>
<path d="M11.9119 26.9417C10.7935 26.5895 10.0796 24.7906 9.88202 23.9748C13.1806 24.9934 17.2621 24.445 18.3508 24.0026C18.2321 24.9114 17.7834 26.3002 16.5161 26.8913C15.0183 27.5898 13.198 27.3466 11.9119 26.9417Z" fill="white"/>
</svg>
