<svg width="28" height="24" viewBox="0 0 28 24" fill="none" xmlns="http://www.w3.org/2000/svg">
<path d="M15.6667 23.6239C13.8611 23.6239 12.1901 23.1785 10.6536 22.2877C9.11718 21.3968 7.9019 20.186 7.0078 18.6552C6.11371 17.1244 5.66666 15.4595 5.66666 13.6605C5.66666 11.827 6.3177 10.2616 7.61978 8.96426C8.92187 7.66694 10.493 7.01828 12.3333 7.01828C12.9236 7.01828 13.6007 7.18261 14.3646 7.51126C15.1285 7.83992 15.8142 8.33722 16.4219 9.00317C17.0295 9.66913 17.3333 10.3913 17.3333 11.1697C17.3333 12.1902 17.2378 12.9167 17.0469 13.3492C17.6198 13.0897 18.0885 12.6875 18.4531 12.1427C18.8177 11.5978 19 10.9967 19 10.3394C19 8.50587 18.3489 6.94045 17.0469 5.64313C15.7448 4.34582 14.1736 3.69716 12.3333 3.69716C10.8229 3.69716 9.42968 4.06906 8.15364 4.81285C6.87759 5.55664 5.86631 6.56422 5.11978 7.83559C4.37325 9.10696 3.99999 10.4951 3.99999 12C3.99999 14.1622 4.32551 16.1341 4.97655 17.9157C5.62759 19.6974 6.41318 21.0466 7.33332 21.9633C4.92013 21.1677 3.20572 19.9655 2.19009 18.3568C1.17447 16.7481 0.666656 14.6292 0.666656 12C0.666656 10.4259 0.974816 8.92101 1.59114 7.48532C2.20746 6.04962 3.03645 4.81285 4.07811 3.775C5.11978 2.73715 6.3611 1.91119 7.80207 1.29713C9.24305 0.683069 10.7535 0.376038 12.3333 0.376038C14.1389 0.376038 15.8099 0.821449 17.3463 1.71227C18.8828 2.60309 20.0981 3.81392 20.9922 5.34475C21.8863 6.87558 22.3333 8.54047 22.3333 10.3394C22.3333 12.1729 21.6823 13.7384 20.3802 15.0357C19.0781 16.333 17.5069 16.9817 15.6667 16.9817C15.0764 16.9817 14.3993 16.8173 13.6354 16.4887C12.8715 16.16 12.1858 15.6627 11.5781 14.9968C10.9705 14.3308 10.6667 13.6086 10.6667 12.8302C10.6667 11.8097 10.7621 11.0832 10.9531 10.6508C10.3802 10.9102 9.91145 11.3124 9.54687 11.8573C9.18228 12.4021 8.99999 13.0032 8.99999 13.6605C8.99999 15.4941 9.65103 17.0595 10.9531 18.3568C12.2552 19.6541 13.8264 20.3028 15.6667 20.3028C17.1771 20.3028 18.5703 19.9309 19.8463 19.1871C21.1224 18.4433 22.1337 17.4357 22.8802 16.1643C23.6267 14.893 24 13.5049 24 12C24 9.85508 23.6745 7.88748 23.0234 6.09719C22.3724 4.3069 21.5868 2.95337 20.6667 2.0366C23.0799 2.83229 24.7943 4.03446 25.8099 5.64313C26.8255 7.2518 27.3333 9.37075 27.3333 12C27.3333 13.574 27.0252 15.0789 26.4088 16.5146C25.7925 17.9503 24.9635 19.1871 23.9219 20.2249C22.8802 21.2628 21.6389 22.0887 20.1979 22.7028C18.7569 23.3169 17.2465 23.6239 15.6667 23.6239Z" fill="white"/>
</svg>
